<svg xmlns="http://www.w3.org/2000/svg" width="29" height="40" viewBox="0 0 29 40"><defs><style>.a{fill:#0083fd;}.b{fill:#0072fc;}.c{fill:#ff9838;}.d{fill:#ff8709;}.e{fill:#ce7430;}.f{fill:#bc672e;}</style></defs><g transform="translate(-70.148)"><g transform="translate(70.148 0)"><path class="a" d="M106,358.126l-6.033-2.011L98.2,356.1,95.1,364.993a.409.409,0,0,0,.429.541l4.336-.454a.409.409,0,0,1,.329.114l3.117,3.048a.409.409,0,0,0,.672-.158l3.114-8.946Z" transform="translate(-93.121 -328.359)"/><path class="b" d="M143.633,338.014l.629-1.808-8.905-3.028-.627,1.8A16.346,16.346,0,0,0,143.633,338.014Z" transform="translate(-129.71 -307.17)"/><path class="a" d="M265.108,358.126l6.033-2.011,1.768-.01L276,364.993a.409.409,0,0,1-.429.541l-4.336-.454a.409.409,0,0,0-.329.114l-3.117,3.048a.409.409,0,0,1-.672-.158l-3.114-8.946Z" transform="translate(-248.986 -328.359)"/><path class="b" d="M256.629,338.014,256,336.206l8.905-3.028.627,1.8A16.346,16.346,0,0,1,256.629,338.014Z" transform="translate(-241.553 -307.17)"/><path class="c" d="M84.854,27.746c-14.482,0-14.494-13.753-14.482-13.995a14.5,14.5,0,0,1,28.964,0C99.348,13.992,99.336,27.746,84.854,27.746Z" transform="translate(-70.354 0)"/><path class="d" d="M84.648,190.358a14.549,14.549,0,0,1-14.482-13.873q-.018.366-.018.736a14.5,14.5,0,1,0,29,0q0-.37-.018-.736A14.549,14.549,0,0,1,84.648,190.358Z" transform="translate(-70.148 -162.75)"/><path class="e" d="M132.387,50.949c0,4.928-5.1,10.8-11.4,10.8s-11.4-6.2-11.4-10.8q0-.371.023-.736a11.394,11.394,0,0,1,22.754,0Q132.387,50.578,132.387,50.949Z" transform="translate(-106.488 -36.34)"/><path class="f" d="M120.988,187.258a11.446,11.446,0,0,1-11.376-10.773c-.015.244-.024.489-.024.736a11.4,11.4,0,1,0,22.8,0c0-.247-.009-.493-.024-.736A11.446,11.446,0,0,1,120.988,187.258Z" transform="translate(-106.488 -162.734)"/></g></g></svg>