<svg xmlns="http://www.w3.org/2000/svg" width="29" height="40" viewBox="0 0 29 40"><defs><style>.a{fill:#d172d8;}.b{fill:#944d9a;}.c{fill:#ffd138;}.d{fill:#bc882e;}.e{fill:#e9ba1e;}</style></defs><g transform="translate(-70.148)"><g transform="translate(70.148 0)"><path class="a" d="M105.917,358.111l-3.077-1.026-2.911-.97-1.755-.01-3.07,8.821a.406.406,0,0,0,.426.537l4.3-.451a.406.406,0,0,1,.326.114l3.094,3.025a.406.406,0,0,0,.667-.157l3.09-8.879Z" transform="translate(-93.136 -328.268)"/><path class="b" d="M143.567,337.978l.624-1.794-8.839-3.006-.623,1.789A16.224,16.224,0,0,0,143.567,337.978Z" transform="translate(-129.691 -307.144)"/><path class="a" d="M265.1,358.111l5.988-2,1.755-.01,3.07,8.821a.406.406,0,0,1-.426.537l-4.3-.451a.406.406,0,0,0-.326.114l-3.094,3.025A.406.406,0,0,1,267.1,368l-3.09-8.879Z" transform="translate(-248.881 -328.268)"/><path class="b" d="M256.624,337.978,256,336.184l8.839-3.006.623,1.789A16.224,16.224,0,0,1,256.624,337.978Z" transform="translate(-241.5 -307.144)"/><path class="c" d="M84.854,27.837c-14.482,0-14.494-13.8-14.482-14.041a14.5,14.5,0,0,1,28.964,0C99.348,14.039,99.336,27.837,84.854,27.837Z" transform="translate(-70.354 0)"/><path class="d" d="M84.648,190.254a14.5,14.5,0,0,1-14.482-13.769q-.018.363-.018.731a14.5,14.5,0,0,0,29,0q0-.368-.018-.731A14.5,14.5,0,0,1,84.648,190.254Z" transform="translate(-70.148 -162.686)"/><path class="e" d="M132.434,50.863c0,4.891-5.114,10.721-11.423,10.721s-11.423-6.15-11.423-10.721q0-.368.023-.731a11.423,11.423,0,0,1,22.8,0Q132.434,50.495,132.434,50.863Z" transform="translate(-106.511 -36.363)"/><path class="d" d="M121.011,187.177a11.423,11.423,0,0,1-11.4-10.692c-.015.242-.024.485-.024.731a11.423,11.423,0,1,0,22.846,0c0-.246-.009-.489-.024-.731A11.423,11.423,0,0,1,121.011,187.177Z" transform="translate(-106.511 -162.689)"/></g></g></svg>