<svg xmlns="http://www.w3.org/2000/svg" width="86.883" height="73.127" viewBox="0 0 86.883 73.127"><defs><style>.a{fill:#98db7c;}.b{fill:#82d361;}.c{fill:#0083fd;}.d{fill:#0072fc;}.e{fill:#fff;}.f{fill:#d172d8;}.g{fill:#944d9a;}</style></defs><g transform="translate(0 -40.533)"><rect class="a" width="24.798" height="49.234" transform="translate(1.81 64.426)"/><rect class="b" width="24.798" height="2.353" transform="translate(1.81 64.426)"/><rect class="a" width="28.418" height="5.973" transform="translate(0 58.634)"/><rect class="c" width="24.798" height="38.373" transform="translate(60.275 75.286)"/><rect class="d" width="24.798" height="2.353" transform="translate(60.275 75.286)"/><rect class="c" width="28.418" height="5.973" transform="translate(58.465 69.494)"/><g transform="translate(7.24 74.2)"><path class="e" d="M51.174,246.716a3.016,3.016,0,0,0,.724-1.991,2.527,2.527,0,0,0-.543-1.629,2.294,2.294,0,0,0-1.629-.724c-1.267,0-2.353.9-3.439,2.534l-3.62-1.81a9.548,9.548,0,0,1,2.9-3.077,7.1,7.1,0,0,1,4.163-1.086,6.486,6.486,0,0,1,4.344,1.629,5.366,5.366,0,0,1,1.81,4.344,5.732,5.732,0,0,1-.724,2.9,27.041,27.041,0,0,1-2.715,3.439L49,254.862h7.6v3.8H43.029V255.4l5.611-5.792C49.726,248.345,50.631,247.44,51.174,246.716Z" transform="translate(-42.667 -238.933)"/><path class="e" d="M389.353,305.487v-3.62h11.765v3.077l-3.982,4.525a5.592,5.592,0,0,1,3.62,1.991,5.218,5.218,0,0,1,1.267,3.62,6,6,0,0,1-1.991,4.706,8.259,8.259,0,0,1-5.249,1.629,11.679,11.679,0,0,1-6.516-2.172l1.81-3.439a9.033,9.033,0,0,0,4.887,1.991,3.861,3.861,0,0,0,2.172-.543,2.263,2.263,0,0,0,0-3.62,4.046,4.046,0,0,0-2.715-.724,9.083,9.083,0,0,0-2.534.543v-3.077l3.62-4.344h-6.154v-.543Z" transform="translate(-329.621 -291.188)"/></g><rect class="f" width="24.798" height="67.334" transform="translate(31.133 46.325)"/><path class="g" d="M0,0H24.8V2.353H0Z" transform="translate(31.133 46.325)"/><rect class="f" width="28.418" height="5.973" transform="translate(29.142 40.533)"/><path class="e" d="M233.6,131.2h7.783v19.187H237.22V134.82H233.6V131.2Z" transform="translate(-193.96 -75.281)"/></g></svg>