<svg xmlns="http://www.w3.org/2000/svg" width="29" height="40" viewBox="0 0 29 40"><defs><style>.a{fill:#98db7c;}.b{fill:#82d361;}.c{fill:#e0e0e0;}.d{fill:#cecece;}.e{fill:#9e9e9e;}.f{fill:#898989;}</style></defs><g transform="translate(399.852 2)"><g transform="translate(-399.852 -2)"><g transform="translate(0 0)"><path class="a" d="M106.088,356.487l-6.471-2.238-1.428.145L95.1,363.259a.408.408,0,0,0,.428.54l4.325-.453a.408.408,0,0,1,.328.114l3.109,3.041a.408.408,0,0,0,.671-.158l3.106-8.923Z" transform="translate(-93.126 -326.618)"/><path class="b" d="M143.611,338l.628-1.8-8.883-3.021-.626,1.8A16.3,16.3,0,0,0,143.611,338Z" transform="translate(-129.703 -307.161)"/><path class="a" d="M264.988,356.487l6.471-2.238,1.428.145,3.086,8.865a.408.408,0,0,1-.428.54l-4.325-.453a.408.408,0,0,0-.328.114l-3.109,3.041a.408.408,0,0,1-.671-.158l-3.106-8.923Z" transform="translate(-248.95 -326.618)"/><path class="b" d="M256.628,338,256,336.2l8.883-3.021.626,1.8A16.3,16.3,0,0,1,256.628,338Z" transform="translate(-241.535 -307.161)"/><path class="c" d="M84.854,28.038c-14.482,0-14.494-14.029-14.482-14.271a14.5,14.5,0,0,1,28.963-.015C99.348,14,99.335,28.038,84.854,28.038Z" transform="translate(-70.354 0)"/><path class="d" d="M84.648,190.321a14.532,14.532,0,0,1-14.482-13.837q-.018.365-.018.734a14.5,14.5,0,1,0,29,0q0-.37-.018-.734A14.532,14.532,0,0,1,84.648,190.321Z" transform="translate(-70.148 -162.727)"/><path class="e" d="M121.255,61.487c-11.408,0-11.4-11.059-11.385-11.3a11.4,11.4,0,0,1,22.769,0C132.654,50.428,132.639,61.487,121.255,61.487Z" transform="translate(-106.755 -36.348)"/><path class="f" d="M121,187.23a11.438,11.438,0,0,1-11.384-10.745c-.015.243-.024.488-.024.734a11.408,11.408,0,1,0,22.815,0c0-.247-.009-.492-.024-.734A11.438,11.438,0,0,1,121,187.23Z" transform="translate(-106.496 -162.719)"/></g></g></g></svg>